<svg xmlns="http://www.w3.org/2000/svg" width="720" height="405" viewBox="0 0 720 405" role="img" aria-labelledby="title desc">
  <title id="title">Weather for City HTML preview</title>
  <desc id="desc">Compact preview of the animated HTML weather card used by the Weather for City shortcut.</desc>
  <defs>
    <linearGradient id="sky" x1="0" y1="0" x2="1" y2="1">
      <stop offset="0" stop-color="#061526"/>
      <stop offset=".55" stop-color="#1d4ed8"/>
      <stop offset="1" stop-color="#5b21b6"/>
    </linearGradient>
    <linearGradient id="card" x1="0" y1="0" x2="1" y2="1">
      <stop offset="0" stop-color="#0f2347" stop-opacity=".88"/>
      <stop offset="1" stop-color="#312e81" stop-opacity=".76"/>
    </linearGradient>
    <radialGradient id="sun" cx=".45" cy=".42" r=".58">
      <stop offset="0" stop-color="#fff7ad"/>
      <stop offset=".55" stop-color="#fbbf24"/>
      <stop offset="1" stop-color="#f97316"/>
    </radialGradient>
    <filter id="softShadow" x="-20%" y="-20%" width="140%" height="150%">
      <feDropShadow dx="0" dy="22" stdDeviation="18" flood-color="#020617" flood-opacity=".42"/>
    </filter>
    <filter id="glow" x="-30%" y="-30%" width="160%" height="160%">
      <feGaussianBlur stdDeviation="10" result="blur"/>
      <feMerge>
        <feMergeNode in="blur"/>
        <feMergeNode in="SourceGraphic"/>
      </feMerge>
    </filter>
    <filter id="cityGlow" x="-30%" y="-40%" width="170%" height="190%">
      <feDropShadow dx="0" dy="2" stdDeviation="3" flood-color="#07111f" flood-opacity=".9"/>
      <feDropShadow dx="0" dy="0" stdDeviation="5" flood-color="#60a5fa" flood-opacity=".42"/>
    </filter>
  </defs>
  <rect width="720" height="405" rx="30" fill="url(#sky)"/>
  <g opacity=".16" stroke="#bfdbfe" stroke-width="2">
    <path d="M32 405 215 0"/>
    <path d="M74 405 257 0"/>
    <path d="M116 405 299 0"/>
    <path d="M158 405 341 0"/>
    <path d="M200 405 383 0"/>
    <path d="M242 405 425 0"/>
    <path d="M284 405 467 0"/>
    <path d="M326 405 509 0"/>
    <path d="M368 405 551 0"/>
    <path d="M410 405 593 0"/>
    <path d="M452 405 635 0"/>
    <path d="M494 405 677 0"/>
    <path d="M536 405 719 0"/>
  </g>
  <circle cx="592" cy="83" r="49" fill="url(#sun)" filter="url(#glow)"/>
  <g opacity=".88">
    <rect x="86" y="92" width="128" height="41" rx="22" fill="#eaf3ff"/>
    <circle cx="124" cy="91" r="35" fill="#eaf3ff"/>
    <circle cx="178" cy="82" r="42" fill="#eaf3ff"/>
  </g>
  <g filter="url(#softShadow)">
    <rect x="174" y="128" width="372" height="214" rx="32" fill="url(#card)" stroke="#93c5fd" stroke-opacity=".42" stroke-width="1.5"/>
    <text x="207" y="176" fill="#c7d2fe" font-family="-apple-system,BlinkMacSystemFont,Segoe UI,sans-serif" font-size="14" font-weight="800" letter-spacing="5">CURRENT WEATHER</text>
    <rect x="195" y="184" width="164" height="51" rx="16" fill="#07111f" fill-opacity=".52" stroke="#dbeafe" stroke-opacity=".14"/>
    <text x="207" y="223" fill="#dceeff" font-family="-apple-system,BlinkMacSystemFont,Segoe UI,sans-serif" font-size="40" font-weight="900" filter="url(#cityGlow)">Vienna</text>
    <rect x="207" y="246" width="205" height="70" rx="26" fill="#ffffff" opacity=".13"/>
    <text x="224" y="300" fill="#fff3b0" font-family="-apple-system,BlinkMacSystemFont,Segoe UI,sans-serif" font-size="55" font-weight="950" letter-spacing="-4">21.9 °C</text>
    <text x="430" y="277" fill="#fde68a" font-family="-apple-system,BlinkMacSystemFont,Segoe UI,sans-serif" font-size="20" font-weight="850">Cloudy</text>
    <text x="430" y="306" fill="#bfdbfe" font-family="-apple-system,BlinkMacSystemFont,Segoe UI,sans-serif" font-size="13" font-weight="700">Today</text>
  </g>
</svg>
